<svg width="55" height="77" viewBox="0 0 55 77" fill="none" xmlns="http://www.w3.org/2000/svg"><path fill-rule="evenodd" clip-rule="evenodd" d="M4.34173 0H50.6583C53.0527 0 55 2.02093 55 4.47279V52.1875C55 54.6542 53.0383 56.6603 50.6583 56.6603H4.34173C1.94729 56.6603 0 54.6393 0 52.1875V4.47279C0 2.00607 1.96171 0 4.34173 0Z" fill="#F24F00"/><path d="M26.2065 72.9766L21.437 53.2348C21.285 52.6056 21.7617 52 22.409 52H31.9481C32.5954 52 33.0721 52.6056 32.9201 53.2348L28.1506 72.9766C27.9041 73.9968 26.453 73.9968 26.2065 72.9766Z" fill="#F24F00"/><path d="M15.0343 46C13.4328 46 14.8208 45.9883 14.3818 45.9883C12.3059 46.0117 11.345 46.0233 10.0402 44.4715C8.9844 43.2113 9.01999 42.3828 9.09117 40.8193C9.10303 40.6326 9.1149 40.3992 9.1149 39.7225V22.8269L10.6096 21.7184L25.58 10.6569L27.8102 9L30.0403 10.6686L46.1733 22.7102V36.3737L38.7474 30.8313V26.3273L27.7865 18.1479L16.5527 26.4557V38.7609H46.3066V46H15.0343Z" fill="white"/></svg>