<svg width="36" height="44" viewBox="0 0 36 44" xmlns="http://www.w3.org/2000/svg"><path d="M17.3582 0.0111988C8.39352 0.31793 0.946064 7.13818 0.0856743 15.8439C-0.0901042 17.5851 0.0116625 19.2721 0.326214 20.8869C0.326214 20.8869 0.353968 21.0764 0.446483 21.4372C0.724028 22.6461 1.14035 23.8189 1.65843 24.9195C3.46247 29.0875 7.6349 36.0611 16.9974 43.6482C17.571 44.1173 18.4129 44.1173 18.9957 43.6482C28.3583 36.0701 32.5307 29.0965 34.344 24.9105C34.8713 23.8099 35.2784 22.6461 35.5559 21.4282C35.6392 21.0764 35.6762 20.8779 35.6762 20.8779C35.889 19.7953 36 18.6857 36 17.549C36 7.64338 27.5904 -0.340639 17.3582 0.0111988ZM17.9966 26.2818C13.1673 26.2818 9.25391 22.4657 9.25391 17.7565C9.25391 13.0473 13.1673 9.23117 17.9966 9.23117C22.8259 9.23117 26.7392 13.0473 26.7392 17.7565C26.7392 22.4657 22.8259 26.2818 17.9966 26.2818Z" fill="#F24F00"/></svg>