<?xml version="1.0" encoding="utf-8"?><svg width="110" height="79" viewBox="0 0 110 79" xmlns="http://www.w3.org/2000/svg" xmlns:xlink="http://www.w3.org/1999/xlink"><svg width="22" height="17" fill="none" viewBox="0 0 22 17" id="arrow-bottom" x="55" y="44" xmlns="http://www.w3.org/2000/svg"><path d="M1.838 0a1 1 0 0 0-.84 1.543l9.162 14.16a1 1 0 0 0 1.68 0L21 1.543A1 1 0 0 0 20.161 0H1.839z" fill="#F24F00"/></svg><svg width="17" height="22" fill="none" viewBox="0 0 17 22" id="arrow-in" x="93" xmlns="http://www.w3.org/2000/svg"><path d="M0 20.162a1 1 0 0 0 1.543.84l14.16-9.162a1 1 0 0 0 0-1.68L1.543 1A1 1 0 0 0 0 1.839v18.323z" fill="#F24F00"/></svg><svg width="17" height="22" fill="none" viewBox="0 0 17 22" id="arrow-out" x="93" y="22" xmlns="http://www.w3.org/2000/svg"><path d="M17 1.838a1 1 0 0 0-1.543-.84L1.297 10.16a1 1 0 0 0 0 1.68L15.458 21a1 1 0 0 0 1.543-.84V1.839z" fill="#F24F00"/></svg><svg width="40" height="2" fill="none" viewBox="0 0 40 2" id="bg-line-h" y="77" xmlns="http://www.w3.org/2000/svg"><mask id="da" maskUnits="userSpaceOnUse" x="0" y="0" width="40" height="2"><path transform="rotate(-90 0 2)" fill="#C4C4C4" d="M0 2h2v40H0z"/></mask><g mask="url(#da)"><path d="M-4323-472V-4a5 5 0 0 0 5 5h110.5M572-240.255V-4a5 5 0 0 1-5 5H-614.5m0-320V1m0 0H-1942m0-161V1m0 0h-1399m0-236V1m0 0h-866.5m0-473V1" stroke="#F24F00" stroke-width="2" stroke-linecap="round" stroke-linejoin="round" stroke-dasharray="10 10"/></g></svg><svg width="2" height="40" fill="none" viewBox="0 0 2 40" id="bg-line-v" x="91" xmlns="http://www.w3.org/2000/svg"><mask id="ea" maskUnits="userSpaceOnUse" x="0" y="0" width="2" height="40"><path fill="#C4C4C4" d="M0 0h2v40H0z"/></mask><g mask="url(#ea)"><path d="M474-4323H6a5 5 0 0 0-5 5v110.5M242.255 572H6a5 5 0 0 1-5-5V-614.5m320 0H1m0 0V-1942m161 0H1m0 0v-1399m236 0H1m0 0v-866.5m473 0H1" stroke="#F24F00" stroke-width="2" stroke-linecap="round" stroke-linejoin="round" stroke-dasharray="10 10"/></g></svg><svg width="55" height="77" fill="none" viewBox="0 0 55 77" id="icon-map" xmlns="http://www.w3.org/2000/svg"><path fill-rule="evenodd" clip-rule="evenodd" d="M4.342 0h46.316C53.053 0 55 2.02 55 4.473v47.714c0 2.467-1.962 4.473-4.342 4.473H4.342C1.947 56.66 0 54.64 0 52.188V4.472C0 2.006 1.962 0 4.342 0z" fill="#F24F00"/><path d="M26.206 72.977l-4.769-19.742A1 1 0 0 1 22.409 52h9.54a1 1 0 0 1 .971 1.235l-4.77 19.742c-.246 1.02-1.697 1.02-1.944 0z" fill="#F24F00"/><path d="M15.034 46c-1.601 0-.213-.012-.652-.012-2.076.024-3.037.035-4.342-1.517-1.056-1.26-1.02-2.088-.949-3.652.012-.186.024-.42.024-1.097V22.827l1.495-1.109 14.97-11.061L27.81 9l2.23 1.669L46.173 22.71v13.664l-7.426-5.543v-4.504l-10.96-8.18-11.234 8.309V38.76h29.754V46H15.034z" fill="#fff"/></svg><svg width="36" height="44" viewBox="0 0 36 44" id="icon-map-building" x="55" xmlns="http://www.w3.org/2000/svg"><path d="M17.358.011C8.394.318.946 7.138.086 15.844a17.226 17.226 0 0 0 .24 5.043s.028.19.12.55a17.295 17.295 0 0 0 1.212 3.482c1.804 4.168 5.977 11.142 15.34 18.73.573.468 1.415.468 1.998 0C28.358 36.07 32.53 29.095 34.344 24.91c.527-1.1.934-2.264 1.212-3.482.083-.352.12-.55.12-.55A17.22 17.22 0 0 0 36 17.549C36 7.643 27.59-.341 17.358.011zm.639 26.27c-4.83 0-8.743-3.815-8.743-8.524 0-4.71 3.913-8.526 8.743-8.526 4.829 0 8.742 3.816 8.742 8.525 0 4.71-3.913 8.526-8.742 8.526z" fill="#F24F00"/></svg><svg width="5" height="14" viewBox="0 0 5 14" id="icon-select" x="93" y="44" xmlns="http://www.w3.org/2000/svg"><path d="M.246 10a.248.248 0 0 0-.206.382l2.253 3.505c.097.15.317.15.414 0l2.253-3.505A.248.248 0 0 0 4.754 10H.246zm0-6a.248.248 0 0 1-.206-.382L2.293.113a.245.245 0 0 1 .414 0L4.96 3.618A.248.248 0 0 1 4.754 4H.246z" fill="#F24F00"/></svg><svg width="10" height="6" viewBox="0 0 10 6" id="icon-select-danger" x="98" y="44" xmlns="http://www.w3.org/2000/svg"><path fill-rule="evenodd" clip-rule="evenodd" d="M.293.293a1 1 0 0 1 1.414 0L5 3.586 8.293.293a1 1 0 0 1 1.414 1.414l-4 4a1 1 0 0 1-1.414 0l-4-4a1 1 0 0 1 0-1.414z" fill="#B5B5BD"/></svg><svg width="10" height="6" viewBox="0 0 10 6" id="icon-select-light" x="98" y="50" xmlns="http://www.w3.org/2000/svg"><path fill-rule="evenodd" clip-rule="evenodd" d="M.293.293a1 1 0 0 1 1.414 0L5 3.586 8.293.293a1 1 0 0 1 1.414 1.414l-4 4a1 1 0 0 1-1.414 0l-4-4a1 1 0 0 1 0-1.414z" fill="#333"/></svg></svg>